<?xml version="1.0" standalone="no"?>
<!DOCTYPE svg PUBLIC "-//W3C//DTD SVG 20010904//EN"
 "http://www.w3.org/TR/2001/REC-SVG-20010904/DTD/svg10.dtd">
<svg version="1.0" xmlns="http://www.w3.org/2000/svg"
 width="452.000000pt" height="471.000000pt" viewBox="0 0 452.000000 471.000000"
 preserveAspectRatio="xMidYMid meet">

<g transform="translate(0.000000,471.000000) scale(0.100000,-0.100000)"
fill="#000000" stroke="none">
<path d="M2050 4699 c-510 -48 -1000 -286 -1372 -667 -407 -416 -642 -963
-674 -1564 l-7 -126 29 -4 c16 -2 54 -2 84 0 l56 4 12 161 c43 572 278 1066
691 1451 499 466 1194 648 1851 485 481 -119 889 -403 1199 -834 84 -118 212
-367 264 -515 72 -206 111 -405 123 -627 l7 -123 105 0 105 0 -7 132 c-26 514
-205 992 -523 1395 -295 373 -739 659 -1208 777 -217 54 -509 76 -735 55z"/>
<path d="M2020 4335 c-429 -53 -819 -249 -1124 -565 -298 -308 -474 -658 -545
-1082 -21 -122 -33 -347 -18 -348 4 0 239 0 523 0 l515 0 -3 275 c-3 247 -5
276 -21 292 -14 14 -38 19 -122 21 l-105 4 0 39 0 39 350 0 350 0 0 -40 0 -40
-87 0 c-109 0 -128 -5 -142 -36 -7 -17 -11 -116 -11 -292 l0 -267 365 0 c239
0 365 3 365 10 0 14 -174 455 -200 505 -28 55 -71 80 -137 80 l-53 0 0 40 0
40 320 0 320 0 0 -24 c0 -53 -6 -56 -99 -56 -98 0 -131 -14 -131 -56 0 -24
184 -510 200 -527 4 -4 101 -8 216 -9 166 0 210 3 216 13 5 8 40 102 79 209
73 201 86 269 60 318 -19 36 -63 52 -141 52 l-70 0 0 40 0 40 280 0 280 0 0
-40 0 -40 -43 0 c-55 0 -104 -33 -146 -98 -25 -40 -191 -465 -191 -490 0 -5
12 -7 28 -6 15 1 261 2 546 3 l519 1 -6 118 c-42 785 -527 1477 -1230 1757
-128 51 -296 97 -422 115 -119 17 -365 20 -485 5z"/>
<path d="M27 2312 c-32 -4 -33 -12 -17 -173 55 -544 251 -999 604 -1398 291
-329 712 -581 1140 -681 172 -41 260 -51 461 -55 192 -4 315 5 462 34 711 139
1323 632 1627 1309 119 266 191 558 212 860 l7 102 -105 0 -104 0 -12 -142
c-43 -506 -242 -957 -587 -1325 -307 -328 -690 -533 -1155 -620 -134 -24 -505
-24 -640 1 -226 41 -354 83 -555 181 -231 113 -381 220 -565 405 -370 371
-585 854 -626 1407 l-6 91 -57 4 c-31 2 -68 2 -84 0z"/>
<path d="M338 2312 c-21 -4 -22 -14 -8 -153 52 -521 275 -970 653 -1317 272
-249 599 -408 977 -474 100 -17 461 -17 560 1 380 67 697 219 970 464 392 353
629 842 666 1375 l7 102 -527 1 c-289 1 -533 2 -541 2 -8 0 -21 -1 -28 -2 -8
0 -26 -37 -41 -81 -16 -44 -33 -83 -39 -87 -15 -9 -97 -12 -97 -2 0 4 13 44
30 88 16 45 26 81 22 82 -5 0 -378 0 -399 -1 -1 0 13 -38 32 -85 33 -84 33
-85 12 -86 -58 -1 -190 0 -191 3 -1 2 -18 41 -37 87 l-34 84 -373 1 -373 1 3
-352 c3 -322 5 -354 21 -370 14 -14 38 -19 117 -21 l100 -4 0 -39 0 -39 -350
0 -350 0 0 40 0 40 89 0 c115 0 137 8 150 57 7 23 11 165 11 361 l0 322 -482
1 c-266 0 -494 1 -508 2 -14 2 -33 1 -42 -1z m2232 -261 l75 -1 49 -127 c27
-71 52 -132 56 -136 3 -4 29 54 56 130 l50 138 52 0 c42 0 51 -3 47 -15 -3 -8
-52 -141 -108 -295 l-104 -280 -39 -3 -40 -3 -116 293 c-64 161 -114 295 -112
298 1 3 15 5 31 4 15 -1 62 -2 103 -3z"/>
</g>
</svg>
